<?xml version="1.0" encoding="UTF-8" standalone="no"?>
<svg
   xmlns:dc="http://purl.org/dc/elements/1.1/"
   xmlns:cc="http://creativecommons.org/ns#"
   xmlns:rdf="http://www.w3.org/1999/02/22-rdf-syntax-ns#"
   xmlns:svg="http://www.w3.org/2000/svg"
   xmlns="http://www.w3.org/2000/svg"
   xmlns:sodipodi="http://sodipodi.sourceforge.net/DTD/sodipodi-0.dtd"
   xmlns:inkscape="http://www.inkscape.org/namespaces/inkscape"
   inkscape:export-ydpi="120.06"
   inkscape:export-xdpi="120.06"
   inkscape:export-filename="/home/yoshi252/program_files/classic2gameport/pcb/drawing.png"
   sodipodi:docname="logo.svg"
   inkscape:version="1.0 (6e3e5246a0, 2020-05-07)"
   id="svg8"
   version="1.1"
   viewBox="0 0 210 297"
   height="297mm"
   width="210mm">
  <defs
     id="defs2">
    <inkscape:perspective
       id="perspective10"
       inkscape:persp3d-origin="105 : 99 : 1"
       inkscape:vp_z="210 : 148.5 : 1"
       inkscape:vp_y="0 : 1000 : 0"
       inkscape:vp_x="0 : 148.5 : 1"
       sodipodi:type="inkscape:persp3d" />
  </defs>
  <sodipodi:namedview
     inkscape:window-maximized="1"
     inkscape:window-y="27"
     inkscape:window-x="72"
     inkscape:window-height="1016"
     inkscape:window-width="1848"
     showgrid="false"
     inkscape:document-rotation="0"
     inkscape:current-layer="layer1"
     inkscape:document-units="mm"
     inkscape:cy="302.11824"
     inkscape:cx="413.22706"
     inkscape:zoom="0.84404467"
     inkscape:pageshadow="2"
     inkscape:pageopacity="0.0"
     borderopacity="1.0"
     bordercolor="#666666"
     pagecolor="#ffffff"
     id="base" />
  <metadata
     id="metadata5">
    <rdf:RDF>
      <cc:Work
         rdf:about="">
        <dc:format>image/svg+xml</dc:format>
        <dc:type
           rdf:resource="http://purl.org/dc/dcmitype/StillImage" />
        <dc:title></dc:title>
      </cc:Work>
    </rdf:RDF>
  </metadata>
  <g
     id="layer1"
     inkscape:groupmode="layer"
     inkscape:label="Layer 1">
    <g
       transform="rotate(-45,-21.477209,70.585418)"
       id="g504">
      <path
         d="m 49.285987,132.26596 h 56.817673 c 2.2197,0 4.00674,1.7871 4.00674,4.00702 v 17.87473 c 0,2.21984 -1.78696,4.00703 -4.00674,4.00703 H 49.285987 c -2.219694,0 -4.006734,-1.7871 -4.006734,-4.00703 v -17.87473 c 0,-2.21984 1.786982,-4.00702 4.006734,-4.00702 z"
         style="fill:#ffffff;stroke:#000000;stroke-width:1.0474;stroke-linecap:round"
         id="path4584" />
      <path
         d="m 50.522473,145.4744 c 0,1.07886 -0.874583,1.95345 -1.953445,1.95345 -1.078863,0 -1.953446,-0.87459 -1.953446,-1.95345 0,-1.07886 0.874583,-1.95344 1.953446,-1.95344 1.078862,0 1.953445,0.87458 1.953445,1.95344 z"
         style="fill:#ffffff;stroke:#000000;stroke-width:0.144449;stroke-linecap:round"
         id="path4586" />
      <path
         d="m 55.887319,137.15528 45.030611,-0.13214 c 2.83976,0 3.16171,1.38914 2.50088,3.46158 l -2.20718,9.64372 c -0.74342,2.17209 -0.48714,3.56126 -3.657457,3.56126 l -39.818886,-0.14245 c -2.015443,0 -3.183662,-2.26092 -3.49105,-3.64417 l -2.181588,-9.51805 c -0.908615,-3.26744 1.230101,-3.32956 3.822127,-3.22989 z"
         style="fill:#f2f2f2;stroke:#000000;stroke-width:1.63147;stroke-linecap:round"
         sodipodi:nodetypes="ccccccccc"
         id="path4588" />
      <path
         d="m 59.492773,143.19499 c 0,0.59048 -0.478676,1.06916 -1.069156,1.06916 -0.59048,0 -1.069156,-0.47868 -1.069156,-1.06916 0,-0.59048 0.478676,-1.06915 1.069156,-1.06915 0.59048,0 1.069156,0.47867 1.069156,1.06915 z"
         style="fill:#000000;stroke:#000000;stroke-width:1.37998;stroke-linecap:round"
         id="path4592" />
      <path
         d="m 65.143628,143.19499 c 0,0.59048 -0.478676,1.06916 -1.069156,1.06916 -0.590479,0 -1.069155,-0.47868 -1.069155,-1.06916 0,-0.59048 0.478676,-1.06915 1.069155,-1.06915 0.59048,0 1.069156,0.47867 1.069156,1.06915 z"
         style="fill:#000000;stroke:#000000;stroke-width:1.37998;stroke-linecap:round"
         id="path4594" />
      <path
         d="m 70.260021,143.19499 c 0,0.59048 -0.478676,1.06916 -1.069156,1.06916 -0.590479,0 -1.069155,-0.47868 -1.069155,-1.06916 0,-0.59048 0.478676,-1.06915 1.069155,-1.06915 0.59048,0 1.069156,0.47867 1.069156,1.06915 z"
         style="fill:#000000;stroke:#000000;stroke-width:1.37998;stroke-linecap:round"
         id="path4596" />
      <path
         d="m 75.988879,143.19499 c 0,0.59048 -0.478676,1.06916 -1.069156,1.06916 -0.590479,0 -1.069155,-0.47868 -1.069155,-1.06916 0,-0.59048 0.478676,-1.06915 1.069155,-1.06915 0.59048,0 1.069156,0.47867 1.069156,1.06915 z"
         style="fill:#000000;stroke:#000000;stroke-width:1.37998;stroke-linecap:round"
         id="path4598" />
      <path
         d="m 81.486618,143.19499 c 0,0.59048 -0.478676,1.06916 -1.069155,1.06916 -0.59048,0 -1.069156,-0.47868 -1.069156,-1.06916 0,-0.59048 0.478676,-1.06915 1.069156,-1.06915 0.590479,0 1.069155,0.47867 1.069155,1.06915 z"
         style="fill:#000000;stroke:#000000;stroke-width:1.37998;stroke-linecap:round"
         id="path4600" />
      <path
         d="m 108.42641,145.4744 c 0,1.07886 -0.87459,1.95345 -1.95345,1.95345 -1.07886,0 -1.95344,-0.87459 -1.95344,-1.95345 0,-1.07886 0.87458,-1.95344 1.95344,-1.95344 1.07886,0 1.95345,0.87458 1.95345,1.95344 z"
         style="fill:#ffffff;stroke:#000000;stroke-width:0.144449;stroke-linecap:round"
         id="path4622" />
      <path
         d="m 86.877465,143.19499 c 0,0.59048 -0.478676,1.06916 -1.069156,1.06916 -0.590479,0 -1.069155,-0.47868 -1.069155,-1.06916 0,-0.59048 0.478676,-1.06915 1.069155,-1.06915 0.59048,0 1.069156,0.47867 1.069156,1.06915 z"
         style="fill:#000000;stroke:#000000;stroke-width:1.37998;stroke-linecap:round"
         id="path4649" />
      <path
         d="m 92.606323,143.19499 c 0,0.59048 -0.478676,1.06916 -1.069156,1.06916 -0.590479,0 -1.069155,-0.47868 -1.069155,-1.06916 0,-0.59048 0.478676,-1.06915 1.069155,-1.06915 0.59048,0 1.069156,0.47867 1.069156,1.06915 z"
         style="fill:#000000;stroke:#000000;stroke-width:1.37998;stroke-linecap:round"
         id="path4651" />
      <path
         d="m 98.104062,143.19499 c 0,0.59048 -0.478676,1.06916 -1.069155,1.06916 -0.59048,0 -1.069156,-0.47868 -1.069156,-1.06916 0,-0.59048 0.478676,-1.06915 1.069156,-1.06915 0.590479,0 1.069155,0.47867 1.069155,1.06915 z"
         style="fill:#000000;stroke:#000000;stroke-width:1.37998;stroke-linecap:round"
         id="path4653" />
      <path
         d="m 62.341312,147.97251 c 0,0.59048 -0.478676,1.06915 -1.069156,1.06915 -0.590479,0 -1.069155,-0.47867 -1.069155,-1.06915 0,-0.59048 0.478676,-1.06916 1.069155,-1.06916 0.59048,0 1.069156,0.47868 1.069156,1.06916 z"
         style="fill:#000000;stroke:#000000;stroke-width:1.37998;stroke-linecap:round"
         id="path4655" />
      <path
         d="m 67.457705,147.97251 c 0,0.59048 -0.478676,1.06915 -1.069155,1.06915 -0.59048,0 -1.069156,-0.47867 -1.069156,-1.06915 0,-0.59048 0.478676,-1.06916 1.069156,-1.06916 0.590479,0 1.069155,0.47868 1.069155,1.06916 z"
         style="fill:#000000;stroke:#000000;stroke-width:1.37998;stroke-linecap:round"
         id="path4657" />
      <path
         d="m 73.183674,147.97251 c 0,0.59048 -0.478676,1.06915 -1.069155,1.06915 -0.59048,0 -1.069156,-0.47867 -1.069156,-1.06915 0,-0.59048 0.478676,-1.06916 1.069156,-1.06916 0.590479,0 1.069155,0.47868 1.069155,1.06916 z"
         style="fill:#000000;stroke:#000000;stroke-width:1.37998;stroke-linecap:round"
         id="path4659" />
      <path
         d="m 78.684303,147.97251 c 0,0.59048 -0.478676,1.06915 -1.069156,1.06915 -0.59048,0 -1.069156,-0.47867 -1.069156,-1.06915 0,-0.59048 0.478676,-1.06916 1.069156,-1.06916 0.59048,0 1.069156,0.47868 1.069156,1.06916 z"
         style="fill:#000000;stroke:#000000;stroke-width:1.37998;stroke-linecap:round"
         id="path4661" />
      <path
         d="m 84.075149,147.97251 c 0,0.59048 -0.478676,1.06915 -1.069155,1.06915 -0.59048,0 -1.069156,-0.47867 -1.069156,-1.06915 0,-0.59048 0.478676,-1.06916 1.069156,-1.06916 0.590479,0 1.069155,0.47868 1.069155,1.06916 z"
         style="fill:#000000;stroke:#000000;stroke-width:1.37998;stroke-linecap:round"
         id="path4663" />
      <path
         d="m 89.801118,147.97251 c 0,0.59048 -0.478676,1.06915 -1.069155,1.06915 -0.59048,0 -1.069156,-0.47867 -1.069156,-1.06915 0,-0.59048 0.478676,-1.06916 1.069156,-1.06916 0.590479,0 1.069155,0.47868 1.069155,1.06916 z"
         style="fill:#000000;stroke:#000000;stroke-width:1.37998;stroke-linecap:round"
         id="path4665" />
      <path
         d="m 95.298858,147.97251 c 0,0.59048 -0.478676,1.06915 -1.069156,1.06915 -0.59048,0 -1.069156,-0.47867 -1.069156,-1.06915 0,-0.59048 0.478676,-1.06916 1.069156,-1.06916 0.59048,0 1.069156,0.47868 1.069156,1.06916 z"
         style="fill:#000000;stroke:#000000;stroke-width:1.37998;stroke-linecap:round"
         id="path4667" />
    </g>
    <g
       transform="rotate(-45,-19.249374,95.89776)"
       id="g483">
      <rect
         width="65.09304"
         height="31.341091"
         rx="15.670546"
         ry="15.670546"
         x="13.965706"
         y="85.644653"
         style="fill:#000000;fill-opacity:1;fill-rule:nonzero;stroke:none;stroke-width:0.680396;stroke-miterlimit:4;stroke-dasharray:none;stroke-opacity:1"
         id="rect2159" />
      <rect
         width="11.089925"
         height="3.3751945"
         x="20.716095"
         y="95.288071"
         style="fill:#ffffff;fill-opacity:1;fill-rule:nonzero;stroke:none;stroke-width:0.680396;stroke-miterlimit:4;stroke-dasharray:none;stroke-opacity:1"
         id="rect3132" />
      <rect
         width="3.3751945"
         height="11.089925"
         x="24.57346"
         y="91.430702"
         style="fill:#ffffff;fill-opacity:1;fill-rule:nonzero;stroke:none;stroke-width:0.680396;stroke-miterlimit:4;stroke-dasharray:none;stroke-opacity:1"
         id="rect4103" />
      <path
         d="m 68.450989,92.395043 a 2.410854,2.410854 0 1 1 -4.821708,0 2.410854,2.410854 0 1 1 4.821708,0 z"
         style="fill:#ffffff;fill-opacity:1;fill-rule:nonzero;stroke:none;stroke-width:0.897999;stroke-miterlimit:4;stroke-dasharray:none;stroke-opacity:1"
         id="path4105" />
      <path
         d="m 62.182769,97.21675 a 2.4108535,2.4108536 0 1 1 -4.821707,0 2.4108535,2.4108536 0 1 1 4.821707,0 z"
         style="fill:#ffffff;fill-opacity:1;fill-rule:nonzero;stroke:none;stroke-width:0.863668;stroke-miterlimit:4;stroke-dasharray:none;stroke-opacity:1"
         id="path4107" />
      <path
         d="m 74.719206,97.34453 a 2.4108532,2.2830728 0 1 1 -4.821705,0 2.4108532,2.2830728 0 1 1 4.821705,0 z"
         style="fill:#ffffff;fill-opacity:1;fill-rule:nonzero;stroke:none;stroke-width:0.732228;stroke-miterlimit:4;stroke-dasharray:none;stroke-opacity:1"
         id="path4109" />
      <path
         d="m 68.450991,102.03846 a 2.4108532,2.4108532 0 1 1 -4.821706,0 2.4108532,2.4108532 0 1 1 4.821706,0 z"
         style="fill:#ffffff;fill-opacity:1;fill-rule:nonzero;stroke:none;stroke-width:0.719723;stroke-miterlimit:4;stroke-dasharray:none;stroke-opacity:1"
         id="path4111" />
      <path
         d="m 43.378117,97.21675 a 1.446512,1.446512 0 1 1 -2.893024,0 1.446512,1.446512 0 1 1 2.893024,0 z"
         style="fill:#ffffff;fill-opacity:1;fill-rule:nonzero;stroke:none;stroke-width:1.0496;stroke-miterlimit:4;stroke-dasharray:none;stroke-opacity:1"
         id="path4113" />
      <path
         d="m 48.199823,97.216751 a 1.4465125,1.4465125 0 1 1 -2.893025,0 1.4465125,1.4465125 0 1 1 2.893025,0 z"
         style="fill:#ffffff;fill-opacity:1;fill-rule:nonzero;stroke:none;stroke-width:0.736539;stroke-miterlimit:4;stroke-dasharray:none;stroke-opacity:1"
         id="path4115" />
      <path
         d="m 53.021527,97.21675 a 1.4465126,1.4465127 0 1 1 -2.893025,0 1.4465126,1.4465127 0 1 1 2.893025,0 z"
         style="fill:#ffffff;fill-opacity:1;fill-rule:nonzero;stroke:none;stroke-width:0.875919;stroke-miterlimit:4;stroke-dasharray:none;stroke-opacity:1"
         id="path4117" />
      <path
         d="m 40.485091,108.54776 a 3.6162802,3.6162802 0 1 1 -7.23256,0 3.6162802,3.6162802 0 1 1 7.23256,0 z"
         style="fill:#ffffff;fill-opacity:1;fill-rule:nonzero;stroke:none;stroke-width:0.842408;stroke-miterlimit:4;stroke-dasharray:none;stroke-opacity:1"
         id="path4119" />
      <path
         d="m 57.361065,108.54776 a 3.6162805,3.6162805 0 1 1 -7.232561,0 3.6162805,3.6162805 0 1 1 7.232561,0 z"
         style="fill:#ffffff;fill-opacity:1;fill-rule:nonzero;stroke:none;stroke-width:0.747959;stroke-miterlimit:4;stroke-dasharray:none;stroke-opacity:1"
         id="path4121" />
    </g>
    <g
       style="font-style:normal;font-variant:normal;font-weight:normal;font-stretch:normal;font-size:25.4px;line-height:1.25;font-family:Karumbi;-inkscape-font-specification:'Karumbi, Normal';font-variant-ligatures:normal;font-variant-caps:normal;font-variant-numeric:normal;font-variant-east-asian:normal;fill:#000000;fill-opacity:1;stroke:none;stroke-width:0.264583"
       id="text508"
       transform="rotate(-45,15.599906,12.930504)"
       aria-label="Classic2Gameport">
      <path
         id="path546"
         style="font-style:normal;font-variant:normal;font-weight:normal;font-stretch:normal;font-size:25.4px;font-family:Karumbi;-inkscape-font-specification:'Karumbi, Normal';font-variant-ligatures:normal;font-variant-caps:normal;font-variant-numeric:normal;font-variant-east-asian:normal;stroke-width:0.264583"
         d="m -26.709138,81.549082 q 0.5588,0.127 0.508,0.5334 -0.0254,0.4064 -0.4826,0.508 -0.4572,0.1016 -1.1938,0.2032 -0.7366,0.1016 -1.5748,0.1778 -0.8382,0.0762 -1.7272,0.1016 -0.889,0 -1.6764,-0.127 -1.778,-0.254 -2.3876,-1.1176 -0.5842,-0.8636 -0.5334,-1.8288 0.0762,-0.9652 0.6096,-1.8796 0.5334,-0.9398 1.397,-1.7526 0.8636,-0.8128 1.8796,-1.4224 2.2098,-1.3462 3.8354,-1.2954 0.635,0.1778 0.3556,0.762 -0.3302,0.9144 -0.8382,0.762 -0.3048,-0.1016 -0.381,-0.4064 -1.27,0.2794 -2.921,1.397 -2.5908,1.7526 -2.921,3.5306 -0.1778,0.9398 0.3302,1.4986 0.508,0.5588 1.4478,0.7366 0.9398,0.1778 2.032,0.1524 2.032,-0.0508 3.937,-0.4572 z" />
      <path
         id="path548"
         style="font-style:normal;font-variant:normal;font-weight:normal;font-stretch:normal;font-size:25.4px;font-family:Karumbi;-inkscape-font-specification:'Karumbi, Normal';font-variant-ligatures:normal;font-variant-caps:normal;font-variant-numeric:normal;font-variant-east-asian:normal;stroke-width:0.264583"
         d="m -25.147832,82.133282 q -0.1016,-0.3556 0.0508,-0.508 0.127,-0.1778 0.3048,-0.2032 0.1016,-0.1524 0.254,-0.4064 0.1524,-0.254 0.3048,-0.508 0.889,-1.4224 1.6764,-2.8194 0.7874,-1.397 1.524,-2.5654 0.1778,-0.4318 0.381,-0.7366 0.1524,-0.3556 0.254,-0.6858 0.127,-0.3556 0.3048,-0.6858 0.2032,-0.3556 0.5334,-0.2794 0.3302,0.0508 0.4572,0.4064 -0.0762,0.7366 -0.6096,1.6256 -0.0508,0.127 -0.127,0.254 -0.0508,0.127 -0.1524,0.3048 l -0.2032,0.4064 q -1.524,3.048 -1.4224,5.588 0.0508,0.8636 0.3302,1.6256 0.1778,0.4826 -0.2794,0.6858 -0.4318,0.2032 -0.6604,-0.3048 -0.6096,-1.6256 -0.254,-3.7592 -0.1778,0.3302 -0.5334,0.889 -0.127,0.2032 -0.2794,0.508 -0.1524,0.3048 -0.3048,0.6096 -0.4064,0.7366 -0.8636,0.889 -0.4826,0.0762 -0.6858,-0.3302 z" />
      <path
         id="path550"
         style="font-style:normal;font-variant:normal;font-weight:normal;font-stretch:normal;font-size:25.4px;font-family:Karumbi;-inkscape-font-specification:'Karumbi, Normal';font-variant-ligatures:normal;font-variant-caps:normal;font-variant-numeric:normal;font-variant-east-asian:normal;stroke-width:0.264583"
         d="m -18.042976,79.517082 q 0.2032,-0.4064 0.4826,-0.762 0.3048,-0.3556 1.0414,-1.0668 0.762,-0.7112 1.3716,-1.0922 0.635,-0.381 0.9398,-0.4064 0.3048,-0.0254 0.508,0.1016 0.4318,0.2794 0.254,0.8382 0.1778,-0.127 0.3302,-0.2286 0.1524,-0.127 0.381,-0.1524 0.254,-0.0508 0.4318,0.127 0.1778,0.1524 0.127,0.4572 -0.254,0.9398 -0.5334,1.7018 -0.254,0.762 -0.1524,1.2446 0.1016,0.4826 0.7366,0.6096 0.635,0.1016 2.2098003,-0.254 0.254,-0.0254 0.4064,0.1016 0.1524,0.127 0.1778,0.3048 0.0254,0.1778 -0.1016,0.3556 -0.1016,0.1778 -0.4572,0.2794 -0.9144003,0.2286 -1.8288003,0.2286 -0.889,0.0254 -1.3716,-0.254 -0.4572,-0.254 -0.6604,-0.6858 -0.3048,-0.6858 0.0762,-2.1082 -0.381,0.381 -0.9144,0.9652 -0.5334,0.5842 -0.762,0.8128 -0.2286,0.2032 -0.4318,0.381 -0.1778,0.1524 -0.635,0.2794 -0.4318,0.127 -0.8636,0.1016 -0.4064,-0.0254 -0.7112,-0.2794 -0.3048,-0.254 -0.2794,-0.7112 0.0254,-0.4826 0.2286,-0.889 z m 3.4798,-1.5494 q -0.2794,-0.0254 -0.4318,-0.2286 -0.635,0.508 -1.3208,1.1684 -0.6858,0.635 -0.9144,1.4224 1.016,0.2794 2.3368,-1.5494 0.3556,-0.508 0.7366,-0.9144 -0.1524,0.0508 -0.4064,0.1016 z" />
      <path
         id="path552"
         style="font-style:normal;font-variant:normal;font-weight:normal;font-stretch:normal;font-size:25.4px;font-family:Karumbi;-inkscape-font-specification:'Karumbi, Normal';font-variant-ligatures:normal;font-variant-caps:normal;font-variant-numeric:normal;font-variant-east-asian:normal;stroke-width:0.264583"
         d="m -5.9533694,76.926282 q 0.3556,0.3048 0.254,0.5588 -0.2032,0.4826 -0.635,0.381 -0.508,-0.2032 -1.1176,0 -1.016,0.3302 -1.7018,0.7366 0.4826,0.3048 1.016,0.4826 0.5588,0.1778 1.016,0.4572 1.0668,0.5588 1.3208,1.524 -0.0508,0.3048 -0.1778,0.4572 -1.0922,0.762 -2.794,1.1176 -1.6509996,0.3556 -3.0225996,0.0762 -0.4318,-0.2032 -0.3302,-0.5842 0.1016,-0.3556 0.5334,-0.4064 1.6255996,0.2794 3.7083996,-0.3556 0.6096,-0.1778 0.9652,-0.4318 -0.4318,-0.3048 -0.9652,-0.508 -0.5334,-0.2032 -1.0414,-0.4318 -0.4826,-0.254 -0.8636,-0.5842 -0.3555996,-0.3302 -0.4571996,-0.9144 -0.0254,-0.3556 0.2286,-0.5588 2.5399996,-1.5748 4.0639996,-1.016 z" />
      <path
         id="path554"
         style="font-style:normal;font-variant:normal;font-weight:normal;font-stretch:normal;font-size:25.4px;font-family:Karumbi;-inkscape-font-specification:'Karumbi, Normal';font-variant-ligatures:normal;font-variant-caps:normal;font-variant-numeric:normal;font-variant-east-asian:normal;stroke-width:0.264583"
         d="m 0.14858217,76.926282 q 0.3556,0.3048 0.254,0.5588 -0.2032,0.4826 -0.63499999,0.381 -0.50799999,-0.2032 -1.11759998,0 -1.016,0.3302 -1.7018,0.7366 0.4826,0.3048 1.016,0.4826 0.5588,0.1778 1.016,0.4572 1.06679997,0.5588 1.32079997,1.524 -0.0508,0.3048 -0.1778,0.4572 -1.09219998,0.762 -2.79399997,1.1176 -1.651,0.3556 -3.0225999,0.0762 -0.4318,-0.2032 -0.3302,-0.5842 0.1016,-0.3556 0.5334,-0.4064 1.6255999,0.2794 3.7083999,-0.3556 0.6096,-0.1778 0.96519999,-0.4318 -0.43179999,-0.3048 -0.96519999,-0.508 -0.5334,-0.2032 -1.0414,-0.4318 -0.4826,-0.254 -0.8636,-0.5842 -0.3556,-0.3302 -0.4572,-0.9144 -0.0254,-0.3556 0.2286,-0.5588 2.54,-1.5748 4.06399997,-1.016 z" />
      <path
         id="path556"
         style="font-style:normal;font-variant:normal;font-weight:normal;font-stretch:normal;font-size:25.4px;font-family:Karumbi;-inkscape-font-specification:'Karumbi, Normal';font-variant-ligatures:normal;font-variant-caps:normal;font-variant-numeric:normal;font-variant-east-asian:normal;stroke-width:0.264583"
         d="m 2.7199376,76.418282 q 0.2286,-0.4318 0.6096,-0.3048 0.4064,0.127 0.3556,0.5842 -0.381,1.3716 -0.6604,2.7432 -0.254,1.3462 -0.635,2.7178 -0.2032,0.4826 -0.6349999,0.3556 -0.4318,-0.127 -0.3048,-0.6604 0.127,-0.508 0.254,-1.016 0.1524,-0.5334 0.2794,-1.0414 v -0.0254 q 0.2031999,-0.8382 0.3301999,-1.6764 0.1524,-0.8636 0.4064,-1.6764 z m 1.3208,-3.6322 q 0.4318,0.1524 0.4318,0.5334 0,0.381 -0.4572,0.4826 h -0.1016 q -0.2794,-0.0254 -0.4064,-0.1778 -0.1016,-0.1524 -0.1016,-0.3556 0.0254,-0.4318 0.5334,-0.4826 z" />
      <path
         id="path558"
         style="font-style:normal;font-variant:normal;font-weight:normal;font-stretch:normal;font-size:25.4px;font-family:Karumbi;-inkscape-font-specification:'Karumbi, Normal';font-variant-ligatures:normal;font-variant-caps:normal;font-variant-numeric:normal;font-variant-east-asian:normal;stroke-width:0.264583"
         d="m 9.2913938,77.612082 q -0.3302,0.1778 -0.6095999,0 -1.397,0.5842 -2.2098,1.8288 -0.3048,0.4572 -0.3556,0.9398 0.508,0.6858 2.3368,0.4826 0.7365999,-0.1016 1.4223999,-0.254 0.6858002,-0.1778 0.9906002,-0.2286 0.3048,-0.0508 0.4572,0.0762 0.1524,0.1016 0.2032,0.254 0.127,0.381 -0.3048,0.6096 -2.0066002,0.508 -2.7686001,0.6096 -1.7018,0.2286 -2.7686,-0.4572 -0.9398,-0.6604 -0.4318,-1.9304 0.4572,-1.1176 1.6764,-2.0828 1.2192,-0.9652 2.1843999,-0.9652 0.254,0.0762 0.381,0.2794 0.1016,0.2794 0.0254,0.4572 -0.0508,0.1524 -0.2286,0.381 z" />
      <path
         id="path560"
         style="font-style:normal;font-variant:normal;font-weight:normal;font-stretch:normal;font-size:25.4px;font-family:Karumbi;-inkscape-font-specification:'Karumbi, Normal';font-variant-ligatures:normal;font-variant-caps:normal;font-variant-numeric:normal;font-variant-east-asian:normal;stroke-width:0.264583"
         d="m 14.021745,75.783282 q -0.4826,0.254 -0.7366,-0.127 -0.2794,-0.4318 0.0762,-0.6858 0.381,-0.254 0.8382,-0.508 0.4826,-0.254 0.9906,-0.4318 0.5334,-0.2032 1.0414,-0.2794 0.5334,-0.1016 0.9652,0 0.9652,0.2286 1.0668,1.397 0.127,1.397 -1.397,3.3274 -1.0668,1.3462 -2.667,2.5654 -0.0254,0 -0.0254,0.0254 0.0762,-0.0254 0.127,-0.0254 0.0762,0 0.8636,-0.2286 2.1082,-0.508 4.9784,-0.3048 0.2032,-0.1016 0.4064,0 0.2286,0.1016 0.3302,0.381 v 0.0254 q -0.0254,0.381 -0.3302,0.5334 -0.4572,0.1524 -0.9906,0.0508 -0.5334,-0.1016 -0.9906,-0.1016 -1.5494,0 -2.9972,0.3556 -1.4478,0.3556 -2.0574,0.508 -0.6096,0.1524 -0.8636,0.3302 -0.254,0.1778 -0.5334,0.1778 -0.254,0 -0.4064,-0.127 -0.1524,-0.127 -0.203199,-0.3048 -0.1524,-0.4318 0.228599,-0.7112 1.9304,-1.397 2.6162,-2.0066 1.5494,-1.3462 2.2606,-2.5908 0.7112,-1.2446 0.635,-1.778 -0.0762,-0.5334 -0.5842,-0.5588 -0.508,-0.0508 -1.27,0.3048 -0.7366,0.3302 -1.3716,0.7874 z" />
      <path
         id="path562"
         style="font-style:normal;font-variant:normal;font-weight:normal;font-stretch:normal;font-size:25.4px;font-family:Karumbi;-inkscape-font-specification:'Karumbi, Normal';font-variant-ligatures:normal;font-variant-caps:normal;font-variant-numeric:normal;font-variant-east-asian:normal;stroke-width:0.264583"
         d="m 28.417196,80.812482 q 0.2286,-1.6002 0.762,-2.5654 -1.3208,-0.0762 -3.4544,0.0508 0.0508,0.0508 0.0508,0.0762 0.0254,0.0254 0.0762,0.0508 1.7526,1.6256 1.3462,3.048 -0.1778,0.6096 -0.7112,1.0668 -0.5334,0.4318 -1.2954,0.6096 -1.651,0.4318 -3.0226,-0.381 -1.6256,-0.9906 -1.3208,-3.429 0.2794,-2.1336 1.8542,-4.0132 0.6858,-0.8128 1.4986,-1.27 0.8128,-0.4572 1.5748,-0.3048 0.2794,0.0508 0.5588,0.127 0.2794,0.0762 0.5334,0.1524 0.2794,0.0508 0.381,0.2286 0.1016,0.1778 0.0508,0.3556 -0.0508,0.1778 -0.2032,0.3048 -0.254,0.2032 -0.6858,0.0254 -0.4318,-0.1778 -0.9144,-0.1778 -0.4826,-0.0254 -1.0922,0.381 -0.5842,0.381 -1.0668,0.9652 -1.3208,1.6002 -1.4986,3.5052 -0.127,1.2446 0.4826,2.0066 0.5588,0.7112 2.1844,0.508 1.5494,-0.1778 1.8034,-1.1176 0.127,-0.4826 -0.4572,-1.2192 -0.4064,-0.5842 -0.9398,-0.762 -0.508,-0.2032 -0.8128,-0.4064 -0.8128,-0.4826 -0.5588,-0.9906 0.2032,-0.381 0.889,-0.381 l 1.0414,0.0508 q 0.9652,-0.1016 1.7526,-0.1016 0.8128,-0.0254 1.524,-0.0254 0.7366,-0.0254 1.397,0.2286 0.3048,0.2032 0.254,0.5588 -0.0254,0.3556 -0.254,0.635 -0.2286,0.2794 -0.381,0.5842 -0.127,0.3048 -0.1778,0.508 -0.0508,0.1778 -0.0762,0.3556 -0.0762,0.4572 -0.1016,0.889 -0.1778,0.4318 -0.5588,0.381 -0.3556,-0.0508 -0.4318,-0.508 z" />
      <path
         id="path564"
         style="font-style:normal;font-variant:normal;font-weight:normal;font-stretch:normal;font-size:25.4px;font-family:Karumbi;-inkscape-font-specification:'Karumbi, Normal';font-variant-ligatures:normal;font-variant-caps:normal;font-variant-numeric:normal;font-variant-east-asian:normal;stroke-width:0.264583"
         d="m 31.616006,79.517082 q 0.2032,-0.4064 0.4826,-0.762 0.3048,-0.3556 1.0414,-1.0668 0.762,-0.7112 1.3716,-1.0922 0.635,-0.381 0.9398,-0.4064 0.3048,-0.0254 0.508,0.1016 0.4318,0.2794 0.254,0.8382 0.1778,-0.127 0.3302,-0.2286 0.1524,-0.127 0.381,-0.1524 0.254,-0.0508 0.4318,0.127 0.1778,0.1524 0.127,0.4572 -0.254,0.9398 -0.5334,1.7018 -0.254,0.762 -0.1524,1.2446 0.1016,0.4826 0.7366,0.6096 0.635,0.1016 2.2098,-0.254 0.254,-0.0254 0.4064,0.1016 0.1524,0.127 0.1778,0.3048 0.0254,0.1778 -0.1016,0.3556 -0.1016,0.1778 -0.4572,0.2794 -0.9144,0.2286 -1.8288,0.2286 -0.889,0.0254 -1.3716,-0.254 -0.4572,-0.254 -0.6604,-0.6858 -0.3048,-0.6858 0.0762,-2.1082 -0.381,0.381 -0.9144,0.9652 -0.5334,0.5842 -0.762,0.8128 -0.2286,0.2032 -0.4318,0.381 -0.1778,0.1524 -0.635,0.2794 -0.4318,0.127 -0.8636,0.1016 -0.4064,-0.0254 -0.7112,-0.2794 -0.3048,-0.254 -0.2794,-0.7112 0.0254,-0.4826 0.2286,-0.889 z m 3.4798,-1.5494 q -0.2794,-0.0254 -0.4318,-0.2286 -0.635,0.508 -1.3208,1.1684 -0.6858,0.635 -0.9144,1.4224 1.016,0.2794 2.3368,-1.5494 0.3556,-0.508 0.7366,-0.9144 -0.1524,0.0508 -0.4064,0.1016 z" />
      <path
         id="path566"
         style="font-style:normal;font-variant:normal;font-weight:normal;font-stretch:normal;font-size:25.4px;font-family:Karumbi;-inkscape-font-specification:'Karumbi, Normal';font-variant-ligatures:normal;font-variant-caps:normal;font-variant-numeric:normal;font-variant-east-asian:normal;stroke-width:0.264583"
         d="m 44.569212,78.526482 -0.0254,0.8128 v 0.4064 q 0.0762,-0.1524 0.1524,-0.3048 0.0762,-0.1778 0.2794,-0.4318 0.2286,-0.2794 0.8128,-0.9144 0.5842,-0.635 1.2954,-1.2192 1.7526,-1.4224 2.6924,-1.2954 0.9652,0.127 1.4478,0.6096 0.508,0.4826 0.6858,1.1684 0.1778,0.6604 0.0508,1.4224 -0.127,0.762 -0.4826,1.4478 -0.8128,1.6002 -2.1844,1.8796 -0.508,0.1016 -0.635,-0.3302 -0.127,-0.4318 0.3556,-0.635 0.9906,-0.2794 1.5748,-1.4478 0.5334,-1.0668 0.3302,-2.0828 -0.3048,-1.6764 -2.2352,-0.6096 -1.2192,0.6604 -2.286,1.8796 -0.6096,0.6604 -0.889,1.2446 -0.254,0.5842 -0.4064,0.889 -0.381,0.7874 -0.762,1.0922 -0.3048,0.1524 -0.5588,0.0254 -0.2286,-0.1016 -0.2794,-0.4572 -0.127,-1.0414 -0.0254,-2.1082 0.1016,-1.0668 0.0508,-2.1082 -0.5588,0.5588 -0.8128,1.2954 -0.254,0.7112 -0.4064,1.4478 -0.1524,0.7366 -0.3302,1.4478 -0.1778,0.7112 -0.5842,1.2446 -0.5588,0.2794 -0.8128,-0.254 -0.127,-0.4064 -0.1524,-1.27 -0.0254,-0.8636 -0.0762,-1.8034 -0.1524,-2.3876 -0.6858,-2.6924 -0.1778,-0.127 -0.508,0.0762 -0.3302,0.2032 -0.4572,0.2286 -0.127,0.0254 -0.3048,-0.0762 -0.1524,-0.0508 -0.2286,-0.2032 -0.2032,-0.3556 0.2032,-0.6604 1.6764,-0.8128 2.3876,0.4064 0.3048,0.5588 0.4064,1.3716 0.127,0.8128 0.1778,1.651 0.2286,-0.8128 0.5334,-1.5748 0.3302,-0.762 0.8128,-1.2446 0.4826,-0.508 0.8128,-0.5842 0.3302,-0.0762 0.5588,0.0762 0.508,0.3556 0.508,1.3462 z" />
      <path
         id="path568"
         style="font-style:normal;font-variant:normal;font-weight:normal;font-stretch:normal;font-size:25.4px;font-family:Karumbi;-inkscape-font-specification:'Karumbi, Normal';font-variant-ligatures:normal;font-variant-caps:normal;font-variant-numeric:normal;font-variant-east-asian:normal;stroke-width:0.264583"
         d="m 58.778131,75.707082 q 0.2794,0.2032 0.2286,0.7366 -0.0254,0.508 -0.4572,0.9652 -0.4064,0.4572 -0.9906,0.7366 -0.8128,0.381 -2.4638,0.6096 -1.3716,1.5494 -0.6858,2.1336 0.635,0.5842 2.8194,0.2794 1.5748,-0.2032 2.8956,-0.635 0.4572,-0.0508 0.5842,0.3556 0.127,0.381 -0.3048,0.6096 -3.048,0.8636 -5.1054,0.6858 -1.2954,-0.127 -1.7272,-0.7366 -0.4064,-0.6096 -0.2286,-1.4478 0.1778,-0.8382 0.8128,-1.7272 0.635,-0.889 1.4478,-1.5748 0.8128,-0.6858 1.6764,-0.9906 0.8636,-0.3302 1.4986,0 z m -0.9144,0.889 q -0.4572,0.1016 -1.4986,0.9398 1.016,-0.3048 1.4986,-0.9398 z" />
      <path
         id="path570"
         style="font-style:normal;font-variant:normal;font-weight:normal;font-stretch:normal;font-size:25.4px;font-family:Karumbi;-inkscape-font-specification:'Karumbi, Normal';font-variant-ligatures:normal;font-variant-caps:normal;font-variant-numeric:normal;font-variant-east-asian:normal;stroke-width:0.264583"
         d="m 62.132517,78.907482 -0.1524,0.1778 q -0.4064,0.2032 -0.6858,-0.0508 -0.254,-0.2794 -0.0508,-0.6858 0.8382,-1.0668 1.397,-1.3716 0.1778,-0.635 0.3302,-1.2446 0.1778,-0.6096 0.3048,-1.016 0.127,-0.4318 0.2286,-1.0414 0.0762,-0.5842 0.3048,-1.2446 0.4826,-1.651 1.0414,-1.8288 0.3048,-0.0508 0.5588,0.254 l 0.1524,0.381 q 0.1016,0.3302 -0.0508,0.5334 -0.1524,0.1778 -0.4064,0.2032 -0.508,1.5748 -1.27,4.6482 0.5334,-0.0254 1.2192,0 0.7112,0.0254 1.3462,0.4064 0.635,0.3556 0.9906,0.889 0.3556,0.5334 0.3302,1.1684 0,0.635 -0.5842,1.143 -0.5588,0.508 -1.2954,0.762 -0.7366,0.254 -1.5494,0.508 -0.8128,0.2286 -1.9304,0 -1.016,2.921 -2.286,4.8006 -0.2794,0.4318 -0.7112,0.1524 -0.381,-0.254 -0.127,-0.7366 1.6764,-2.4384 2.8956,-6.8072 z m 1.4224,-1.2446 q -0.3556,1.2954 -0.8636,2.8702 1.143,0.1524 1.9812,-0.1524 1.4986,-0.5588 2.0574,-1.4224 -0.254,-0.8382 -1.27,-1.1938 -0.9652,-0.3556 -1.905,-0.1016 z" />
      <path
         id="path572"
         style="font-style:normal;font-variant:normal;font-weight:normal;font-stretch:normal;font-size:25.4px;font-family:Karumbi;-inkscape-font-specification:'Karumbi, Normal';font-variant-ligatures:normal;font-variant-caps:normal;font-variant-numeric:normal;font-variant-east-asian:normal;stroke-width:0.264583"
         d="m 68.896857,79.491682 q 0.1524,-0.4064 0.3556,-0.9144 0.1524,-0.5334 0.4064,-0.9652 0.5842,-1.143 1.2192,-1.6256 l 0.0762,-0.1524 q 1.3462,-1.1684 2.667,-0.8636 0.6096,0.1524 1.0668,0.5842 0.4572,0.4064 0.6604,0.9906 0.508,1.3716 -0.3556,2.921 -0.5588,1.0414 -1.8796,1.6764 -0.9652,0.4826 -2.4638,0.6604 -0.8382,0.127 -1.4478,-0.6858 -0.6096,-0.8128 -0.3048,-1.6256 z m 4.2672,0.4318 q 0.5842,-0.4064 0.9652,-0.9398 0.381,-0.5588 0.381,-1.4224 0,-0.8636 -0.4572,-1.2954 -0.4572,-0.4318 -1.1176,-0.3302 -0.1016,0.3048 -0.4318,0.381 -0.9652,0.127 -1.7526,1.3462 -0.6858,1.0668 -0.8636,2.0574 -0.0508,0.2032 0.0254,0.4064 0.1016,0.1778 0.1524,0.381 0.1524,0.0508 0.3048,0.1524 0.1524,0.0762 0.508,0.1016 0.381,0.0254 1.0414,-0.2032 0.6858,-0.2286 1.2446,-0.635 z" />
      <path
         id="path574"
         style="font-style:normal;font-variant:normal;font-weight:normal;font-stretch:normal;font-size:25.4px;font-family:Karumbi;-inkscape-font-specification:'Karumbi, Normal';font-variant-ligatures:normal;font-variant-caps:normal;font-variant-numeric:normal;font-variant-east-asian:normal;stroke-width:0.264583"
         d="m 76.609331,76.900882 q -0.1524,-0.4318 0.0508,-0.6096 0.2032,-0.2032 0.3556,-0.2032 0.1778,0 0.381,0.1524 0.5334,0.6604 0.508,1.4732 -0.0254,0.8128 -0.0762,1.2954 -0.0254,0.4826 -0.0508,0.6604 0,0.1524 -0.0254,0.2794 l -0.0762,0.8382 q 1.016,-1.4732 2.5654,-2.3622 1.5494,-0.889 3.4798,-1.6256 0.4572,-0.0508 0.5842,0.3556 0.127,0.381 -0.3048,0.6096 -2.667,1.016 -3.7846,1.8542 -1.0922,0.8382 -1.7272,1.7526 -0.635,0.889 -1.016,2.1336 -0.127,0.3048 -0.4826,0.4064 h -0.0508 q -0.4572,-0.0762 -0.5334,-0.5334 0.0254,-0.635 0.1524,-1.6256 0.127,-0.9906 0.2286,-1.9558 0.254,-2.3876 -0.1778,-2.8956 z" />
      <path
         id="path576"
         style="font-style:normal;font-variant:normal;font-weight:normal;font-stretch:normal;font-size:25.4px;font-family:Karumbi;-inkscape-font-specification:'Karumbi, Normal';font-variant-ligatures:normal;font-variant-caps:normal;font-variant-numeric:normal;font-variant-east-asian:normal;stroke-width:0.264583"
         d="m 85.130629,77.205682 q -0.4572,0.127 -1.0922,0.3048 -0.508,0.1016 -0.635,-0.3302 -0.127,-0.4318 0.3048,-0.6096 0.4826,-0.1778 1.6256,-0.4572 0.127,-0.9144 0.4318,-1.9304 0.3302,-1.016 0.4826,-1.7526 -0.0508,-0.1016 0.0254,-0.381 0.0762,-0.2794 0.127,-0.4318 0.0762,-0.1524 0.2286,-0.2032 0.1524,-0.0762 0.3302,-0.0508 0.381,0.1016 0.381,0.5334 h 0.0254 l -0.0508,0.1016 q -0.1524,0.9144 -0.4064,1.8034 -0.2286,0.889 -0.4318,1.778 l -0.0762,0.3048 1.6002,-0.3048 q 0.254,-0.0254 0.4064,0.1016 0.1524,0.127 0.1778,0.3048 0.0254,0.1778 -0.1016,0.3556 -0.1016,0.1778 -0.508,0.254 -1.3208,0.254 -1.778,0.3556 -0.2794,1.5494 -0.635,3.048 -0.3302,1.4732 -1.016,2.921 -0.3048,0.4064 -0.6604,0.2032 -0.3556,-0.2032 -0.254,-0.635 0.6096,-1.2954 0.9144,-2.5908 0.3302,-1.3208 0.5842,-2.6924 z" />
    </g>
  </g>
</svg>
